<?xml version="1.0" encoding="UTF-8" standalone="yes"?>
<!DOCTYPE svg PUBLIC "-//W3C//DTD SVG 1.1//EN" "http://www.w3.org/Graphics/SVG/1.1/DTD/svg11.dtd">

<svg width="66" height="62" viewBox="0 0 66 62" xmlns="http://www.w3.org/2000/svg" xmlns:xlink="http://www.w3.org/1999/xlink" version="1.1" baseProfile="full">
    <g transform="scale(1.000000,-1.000000) translate(0,-62)">
        <path d="M 51.399221 16.612802 L 48.523982 17.730104 L 46.141457 18.849011 L 44.217944 20.009647 L 42.719738 21.252134 L 41.613135 22.616595 L 40.864434 24.143156 L 40.439928 25.871938 L 40.305916 27.843065 L 40.419867 28.892959 L 40.729619 29.668410 L 41.743937 30.941658 L 42.352207 31.712295 L 42.963687 32.754165 L 43.530230 34.203688 L 44.003687 36.197284 L 44.279467 36.916295 L 44.669198 37.327158 L 45.630019 37.840737 L 46.120862 38.251601 L 46.565161 38.970612 L 46.922794 40.151844 L 47.153637 41.949371 L 46.961044 43.380970 L 46.537341 44.260474 L 46.113638 44.703436 L 45.974008 44.797325 L 45.934888 44.818691 L 45.924581 44.823769 L 45.921045 44.825411 L 45.923018 44.835313 L 45.928802 44.864498 L 45.951004 44.977613 L 46.032321 45.401048 L 46.297670 46.862608 L 46.879727 50.851407 L 46.852978 52.301197 L 46.511662 54.078394 L 45.772322 56.022504 L 44.551502 57.973034 L 43.734456 58.900553 L 42.765744 59.769491 L 41.634934 60.559788 L 40.331594 61.251381 L 38.845291 61.824209 L 37.165593 62.258210 L 35.282069 62.533322 L 33.184286 62.629485 L 31.110610 62.533322 L 29.248184 62.258210 L 27.586776 61.824209 L 26.116155 61.251381 L 24.826088 60.559788 L 23.706345 59.769491 L 22.746695 58.900553 L 21.936905 57.973034 L 20.725982 56.022504 L 19.991725 54.078394 L 19.652281 52.301197 L 19.625800 50.851407 L 20.207855 46.862608 L 20.473204 45.401048 L 20.554521 44.977613 L 20.576722 44.864498 L 20.582507 44.835313 L 20.584479 44.825411 L 20.580551 44.823769 L 20.569099 44.818691 L 20.525632 44.797325 L 20.370488 44.703436 L 19.899707 44.260474 L 19.428927 43.380970 L 19.273783 42.741405 L 19.214935 41.949371 L 19.490985 40.151844 L 19.882589 38.970612 L 20.351230 38.251601 L 20.858389 37.840737 L 21.834190 37.327158 L 22.225794 36.916295 L 22.501843 36.197284 L 22.975299 34.203688 L 23.541840 32.754165 L 24.153320 31.712295 L 24.761590 30.941658 L 25.775908 29.668410 L 26.085660 28.892959 L 26.199611 27.843065 L 26.065331 25.871938 L 25.638954 24.143156 L 24.885169 22.616595 L 23.768670 21.252134 L 22.254147 20.009647 L 20.306291 18.849011 L 17.889795 17.730104 L 14.969349 16.612802 L 9.262203 14.267459 L 6.878073 13.126885 L 4.851843 12.024830 L 3.217217 10.974133 L 2.007899 9.987633 L 1.257592 9.078171 L 1.000000 8.258584 L 1.000000 1.000000 L 33.184286 1.000000 L 65.368572 1.000000 L 65.368572 8.258584 L 65.116598 9.078171 L 64.379933 9.987633 L 63.187466 10.974133 L 61.568087 12.024830 L 59.550685 13.126885 L 57.164147 14.267459 L 51.399221 16.612802 Z" transform="scale(1.000000,1.000000) translate(-0.184286,-0.814742)" opacity="1.000000"></path>
    </g>
</svg>